<svg width="48" height="48" viewBox="0 0 48 48" fill="none" xmlns="http://www.w3.org/2000/svg">
<rect width="48" height="48" rx="24" fill="#545E76" fill-opacity="0.12"/>
<path opacity="0.5" d="M24.22 26.16L23.78 26.42C23.38 26.66 22.9333 26.9467 22.44 27.28C21.72 27.8 21.2867 28.4067 21.14 29.1H28.76V31H18.8V30.12C18.8 29.1733 18.98 28.38 19.34 27.74C19.6867 27.1 20.1267 26.5667 20.66 26.14C21.2067 25.7 21.9333 25.2 22.84 24.64L23.82 24.08C24.46 23.7067 24.9533 23.4 25.3 23.16C26.1 22.5867 26.5 21.8867 26.5 21.06C26.5 20.4333 26.2867 19.94 25.86 19.58C25.4333 19.2067 24.88 19.02 24.2 19.02C23.52 19.02 22.9 19.2 22.34 19.56C21.7933 19.92 21.1733 20.5333 20.48 21.4L18.82 20.2C19.5533 19.1467 20.3467 18.3667 21.2 17.86C22.0533 17.34 23.0333 17.08 24.14 17.08C25.5533 17.08 26.68 17.46 27.52 18.22C28.36 18.9667 28.78 19.9 28.78 21.02C28.78 21.8067 28.62 22.4733 28.3 23.02C28.0067 23.54 27.6133 23.9867 27.12 24.36C26.6533 24.7067 25.9867 25.1333 25.12 25.64C24.9867 25.7067 24.6867 25.88 24.22 26.16Z" fill="#222733"/>
</svg>
