<svg width="24" height="24" viewBox="0 0 24 24" fill="none" xmlns="http://www.w3.org/2000/svg">
<path d="M19.6933 13.8103C20.4013 14.5743 21.1479 15.2917 21.7826 16.1317C22.0626 16.505 22.3293 16.8903 22.5319 17.3237C22.8199 17.9397 22.5586 18.617 22.0586 18.6543L18.9519 18.6517C18.1493 18.7263 17.5106 18.369 16.9719 17.7637C16.5426 17.2797 16.1439 16.7637 15.7293 16.265C15.5669 16.0586 15.3787 15.874 15.1693 15.7157C14.7466 15.4117 14.3786 15.5037 14.1359 15.993C13.8879 16.4903 13.8319 17.041 13.8079 17.5943C13.7746 18.4023 13.5546 18.6157 12.8186 18.6517C11.2479 18.7343 9.75727 18.4717 8.37194 17.5957C7.1506 16.825 6.20394 15.7357 5.3786 14.5023C3.7746 12.101 2.5466 9.46234 1.44127 6.74901C1.19194 6.13834 1.37327 5.81034 1.98527 5.79967C2.99893 5.77812 4.01291 5.77723 5.0266 5.79701C5.4386 5.80367 5.7106 6.06367 5.8706 6.49434C6.4186 7.98367 7.08927 9.40101 7.93194 10.7157C8.15727 11.065 8.38527 11.4143 8.71194 11.661C9.07194 11.933 9.34661 11.8423 9.51594 11.3997C9.62261 11.1183 9.67061 10.8157 9.6946 10.5143C9.7746 9.47834 9.78527 8.44367 9.64527 7.41167C9.55861 6.76767 9.22927 6.35034 8.64794 6.22901C8.35061 6.16634 8.39461 6.04367 8.5386 5.85701C8.78927 5.53434 9.02394 5.33301 9.49327 5.33301H13.0053C13.5586 5.45301 13.6813 5.72767 13.7573 6.34234L13.7599 10.6517C13.7533 10.889 13.8666 11.5957 14.2559 11.753C14.5653 11.865 14.7706 11.5903 14.9573 11.373C15.7973 10.3863 16.3973 9.22234 16.9346 8.01567C17.1719 7.48501 17.3773 6.93567 17.5746 6.38367C17.7213 5.97567 17.9519 5.77434 18.3693 5.78367L21.7493 5.78767C21.8493 5.78767 21.9506 5.78767 22.0479 5.80634C22.6186 5.91301 22.7746 6.18501 22.5986 6.79967C22.3213 7.76367 21.7813 8.56634 21.2546 9.37301C20.6906 10.2343 20.0879 11.0663 19.5279 11.933C19.0146 12.725 19.0559 13.1237 19.6933 13.8103Z" fill="#2C323A"/>
</svg>
